HIERARCHY
ROOT Hips
{
    OFFSET 0.000000 0.000000 0.000000
    CHANNELS 6 Xposition Yposition Zposition Zrotation Xrotation Yrotation
        JOINT Chest
        {
            OFFSET -0.000000 31.935503 -0.000000
            CHANNELS 3 Zrotation Xrotation Yrotation
            JOINT Neck
            {
                OFFSET -0.000000 23.713140 0.000000
                CHANNELS 3 Zrotation Xrotation Yrotation
                JOINT Head
                {
                    OFFSET -0.000000 10.938888 0.000000
                    CHANNELS 3 Zrotation Xrotation Yrotation
                    End Site
                    {
                        OFFSET -0.000000 16.905556 0.000000
                    }
                }
            }
            JOINT LeftCollar
            {
                OFFSET -0.000000 23.713140 0.000000
                CHANNELS 3 Zrotation Xrotation Yrotation
                JOINT LeftShoulder
                {
                    OFFSET 19.888887 -0.000000 0.000000
                    CHANNELS 3 Zrotation Xrotation Yrotation
                    JOINT LeftElbow
                    {
                        OFFSET 23.906332 0.000000 0.000000
                        CHANNELS 3 Zrotation Xrotation Yrotation
                        JOINT LeftWrist
                        {
                            OFFSET 25.116924 0.000000 0.000000
                            CHANNELS 3 Zrotation Xrotation Yrotation
                            End Site
                            {
                                OFFSET 0.000000 -14.916667 0.000000
                            }
                        }
                    }
                }
            }
            JOINT RightCollar
            {
                OFFSET -0.000000 23.713140 0.000000
                CHANNELS 3 Zrotation Xrotation Yrotation
                JOINT RightShoulder
                {
                    OFFSET -19.888887 0.000000 0.000000
                    CHANNELS 3 Zrotation Xrotation Yrotation
                    JOINT RightElbow
                    {
                        OFFSET -23.906332 0.000000 0.000000
                        CHANNELS 3 Zrotation Xrotation Yrotation
                        JOINT RightWrist
                        {
                            OFFSET -25.116924 0.000000 0.000000
                            CHANNELS 3 Zrotation Xrotation Yrotation
                            End Site
                            {
                                OFFSET -0.000000 -14.916667 0.000000
                            }
                        }
                    }
                }
            }
        }
    JOINT LeftHip
    {
        OFFSET 11.933332 0.000000 0.000000
        CHANNELS 3 Zrotation Xrotation Yrotation
        JOINT LeftKnee
        {
            OFFSET -0.000000 -35.996647 0.000000
            CHANNELS 3 Zrotation Xrotation Yrotation
            JOINT LeftAnkle
            {
                OFFSET -0.000000 -39.788193 0.000000
                CHANNELS 3 Zrotation Xrotation Yrotation
                End Site
                {
                    OFFSET -0.000000 -4.972222 16.905556
                }
            }
        }
    }
    JOINT RightHip
    {
        OFFSET -11.933332 0.000000 0.000000
        CHANNELS 3 Zrotation Xrotation Yrotation
        JOINT RightKnee
        {
            OFFSET -0.000000 -35.996647 0.000000
            CHANNELS 3 Zrotation Xrotation Yrotation
            JOINT RightAnkle
            {
                OFFSET -0.000000 -39.788193 0.000000
                CHANNELS 3 Zrotation Xrotation Yrotation
                End Site
                {
                    OFFSET -0.000000 -4.972222 16.905556
                }
            }
        }
    }
}
MOTION
Frames:    10
Frame Time:    0.010000
-101.359245    84.319626    -3.673952    -3.605192    -1.754239    55.583187    0.189850    25.346998    -0.075391    -0.961206    -3.728828    -5.372952    3.461389    -9.879176    -5.094578    -16.100149    2.341673    -16.251602    -30.495796    45.324268    -48.509171    13.757607    -2.814149    -23.174583    107.707848    19.653065    85.372620    16.060190    -1.115140    -7.613149    -18.107571    48.597336    104.310898    -8.573462    -1.190518    15.782582    -130.091888    13.906901    -23.757490    13.078649    -0.093993    8.278481    -7.605122    30.131805    12.016312    -10.114375    -21.425802    22.440651    -3.419177    -29.632845    6.860955    1.085097    21.820234    -9.159597    13.792076    3.375946    8.210855    
-101.379654    84.310539    -3.630143    -3.650363    -1.734176    55.610508    0.117175    25.453140    -0.126035    -0.961869    -3.857152    -5.367713    3.908922    -9.948203    -4.995352    -16.020308    2.289268    -16.261505    -30.501974    45.147766    -48.532257    13.848266    -2.852785    -23.040800    107.454399    19.028679    86.036896    16.039915    -1.112442    -7.550760    -18.469830    48.421070    104.629295    -8.589696    -1.230728    15.852045    -130.148346    14.310156    -23.994280    13.141180    -0.165741    8.300278    -7.612911    30.180166    11.998086    -10.307841    -21.511311    22.391495    -3.388684    -29.717960    6.893580    1.115233    21.892797    -9.264653    13.670635    3.348662    8.296013    
-101.366997    84.283325    -3.587687    -3.696952    -1.717279    55.590321    0.085185    25.422720    -0.112393    -1.107917    -3.845690    -5.370918    4.139181    -9.907803    -4.974278    -16.038162    2.323610    -16.243374    -30.416162    45.151276    -48.606285    13.757290    -2.844536    -23.046001    107.540428    18.932426    85.760094    15.987719    -1.060951    -7.458687    -19.054138    48.363220    105.127724    -8.755100    -1.236417    15.756639    -129.836731    14.560264    -24.408718    13.189345    -0.244011    8.568520    -7.480737    30.309164    11.727907    -10.317326    -21.555462    22.388229    -3.357649    -29.818981    6.787606    1.115814    21.994537    -9.201497    12.651337    3.226483    8.505484    
-101.377930    84.279274    -3.556378    -3.742892    -1.697004    55.573421    0.049859    25.432682    -0.100685    -1.153320    -3.888795    -5.378745    4.232822    -9.886762    -4.973503    -16.041803    2.288980    -16.265242    -30.266304    45.168026    -48.729141    13.846485    -2.834344    -23.018265    107.424133    18.770948    85.945396    15.959854    -1.057309    -7.438142    -19.299442    48.296314    105.358589    -8.940628    -1.238274    15.676552    -129.699493    14.733504    -24.634865    13.229984    -0.301961    8.685962    -7.437908    30.367477    11.630857    -10.360403    -21.587753    22.373169    -3.329404    -29.906271    6.769260    1.130681    22.061459    -9.219332    12.353309    3.192023    8.601088    
-101.391434    84.276764    -3.520956    -3.800944    -1.671599    55.545338    0.013763    25.437880    -0.079052    -1.201188    -3.935792    -5.372466    4.333896    -9.863982    -4.957005    -16.033501    2.322252    -16.251957    -30.069592    45.120911    -48.928867    13.710020    -2.813787    -22.921658    107.495384    18.591961    86.034050    15.932013    -1.025475    -7.385075    -19.451818    48.230495    105.487877    -8.993364    -1.211978    15.680850    -129.656662    14.915746    -24.805496    13.276285    -0.367529    8.814385    -7.395875    30.426950    11.535490    -10.407270    -21.622314    22.357403    -3.293678    -30.013563    6.755304    1.149627    22.138321    -9.243263    12.080918    3.164439    8.701118    
-101.405968    84.275070    -3.481990    -3.869170    -1.642489    55.507229    -0.024326    25.440487    -0.047331    -1.234757    -3.990334    -5.385265    4.409143    -9.838573    -4.962294    -16.052383    2.286542    -16.269022    -29.759932    45.166992    -49.193436    13.773949    -2.819279    -22.870213    107.415985    18.464527    86.228165    15.899850    -1.041259    -7.369855    -19.523817    48.202343    105.574219    -9.132847    -1.286630    15.620761    -129.612671    14.980532    -24.875610    13.326960    -0.437724    8.944304    -7.358206    30.484642    11.450084    -10.455595    -21.657516    22.342066    -3.251321    -30.137362    6.744849    1.172341    22.223822    -9.271796    11.852986    3.145403    8.801054    
-101.420021    84.273460    -3.440003    -3.944326    -1.611649    55.461544    -0.057442    25.441601    -0.012787    -1.261122    -4.044145    -5.375805    4.477914    -9.815185    -4.946330    -16.056974    2.308485    -16.241560    -29.447287    45.146141    -49.495144    13.650260    -2.724387    -22.758322    107.452110    18.315016    86.398567    15.873082    -1.009603    -7.312457    -19.459345    48.169121    105.514030    -9.107729    -1.250544    15.672396    -129.646774    15.072556    -24.927868    13.380535    -0.509056    9.066662    -7.327457    30.538639    11.381278    -10.503434    -21.692356    22.327639    -3.203995    -30.272192    6.736550    1.198435    22.316311    -9.303360    11.688643    3.136081    8.896229    
-101.432297    84.271286    -3.395466    -4.022734    -1.580799    55.411709    -0.087974    25.443459    0.022616    -1.264864    -4.098344    -5.390717    4.506697    -9.793955    -4.958541    -16.070272    2.291753    -16.265471    -29.111111    45.174171    -49.794086    13.643361    -2.721502    -22.693336    107.468864    18.199495    86.541885    15.846033    -1.026079    -7.306893    -19.331882    48.165794    105.431854    -9.219111    -1.261201    15.633155    -129.657013    15.086219    -24.936707    13.435076    -0.578253    9.172196    -7.305778    30.587204    11.335734    -10.549604    -21.725725    22.313896    -3.154273    -30.412313    6.728576    1.227875    22.414291    -9.335229    11.607107    3.137107    8.979583    
-101.441742    84.267937    -3.348717    -4.099999    -1.551897    55.360996    -0.120048    25.447462    0.053404    -1.257118    -4.144277    -5.394624    4.521409    -9.779984    -4.962027    -16.061279    2.318274    -16.279554    -28.858419    45.138195    -50.042065    13.507565    -2.702020    -22.611738    107.571228    18.015522    86.589073    15.826988    -1.003697    -7.284309    -19.122408    48.149105    105.254730    -9.156103    -1.279128    15.685021    -129.805908    15.100115    -24.849209    13.488728    -0.640570    9.254004    -7.294312    30.627693    11.316916    -10.592622    -21.756395    22.300779    -3.104530    -30.551237    6.719398    1.260204    22.516233    -9.365547    11.620409    3.148157    9.045589    
-101.447723    84.263008    -3.299970    -4.172699    -1.526134    55.312225    -0.151494    25.455067    0.075715    -1.237456    -4.180202    -5.400726    4.516646    -9.773442    -4.968789    -16.037457    2.347014    -16.311348    -28.676504    45.086372    -50.224014    13.440736    -2.717098    -22.571363    107.653099    17.792309    86.607002    15.810847    -1.001636    -7.270612    -18.901501    48.143353    105.088516    -9.202679    -1.251104    15.670620    -129.871109    15.102908    -24.823179    13.539652    -0.691508    9.307437    -7.293219    30.656084    11.326088    -10.632493    -21.782988    22.288435    -3.056682    -30.684124    6.707343    1.294572    22.621113    -9.391795    11.727806    3.167152    9.090405    
